<?xml version="1.0" encoding="utf-8"?>
<!-- Generator: Adobe Illustrator 17.0.0, SVG Export Plug-In . SVG Version: 6.00 Build 0)  -->
<!DOCTYPE svg PUBLIC "-//W3C//DTD SVG 1.1//EN" "http://www.w3.org/Graphics/SVG/1.1/DTD/svg11.dtd">
<svg version="1.1" id="Layer_1" xmlns="http://www.w3.org/2000/svg" xmlns:xlink="http://www.w3.org/1999/xlink" x="0px" y="0px"
	 width="28.418px" height="36.585px" viewBox="0 0 28.418 36.585" enable-background="new 0 0 28.418 36.585" xml:space="preserve">
<path fill="#FF5E62" d="M28.418,14.209c0,11.377-12.844,21.915-12.844,21.915c-0.75,0.616-1.979,0.616-2.729,0
	c0,0-12.844-10.537-12.844-21.915C0,6.361,6.362,0,14.209,0S28.418,6.361,28.418,14.209z"/>
<path fill="#FFFFFF" d="M14.209,19.667c-3.01,0-5.459-2.449-5.459-5.459s2.449-5.459,5.459-5.459s5.459,2.449,5.459,5.459
	S17.219,19.667,14.209,19.667z"/>
<path fill="#FFFFFF" d="M-9.768,14.209c0,11.377-12.844,21.915-12.844,21.915c-0.75,0.616-1.979,0.616-2.729,0
	c0,0-12.844-10.537-12.844-21.915C-38.185,6.361-31.824,0-23.976,0S-9.768,6.361-9.768,14.209z"/>
<path fill="#FF5E62" d="M-23.976,19.667c-3.01,0-5.459-2.449-5.459-5.459s2.449-5.459,5.459-5.459s5.459,2.449,5.459,5.459
	S-20.966,19.667-23.976,19.667z"/>
<path fill="#F3F3F3" d="M62.332,14.209c0,11.377-12.844,21.915-12.844,21.915c-0.75,0.616-1.979,0.616-2.729,0
	c0,0-12.844-10.537-12.844-21.915C33.915,6.361,40.276,0,48.123,0S62.332,6.361,62.332,14.209z"/>
<path fill="#FFFFFF" d="M48.123,19.667c-3.01,0-5.459-2.449-5.459-5.459s2.449-5.459,5.459-5.459c3.01,0,5.459,2.449,5.459,5.459
	S51.133,19.667,48.123,19.667z"/>
</svg>
